<?xml version="1.0" standalone="no"?>
<!DOCTYPE svg PUBLIC "-//W3C//DTD SVG 20010904//EN"
 "http://www.w3.org/TR/2001/REC-SVG-20010904/DTD/svg10.dtd">
<svg version="1.0" xmlns="http://www.w3.org/2000/svg"
 width="80.000000pt" height="80.000000pt" viewBox="0 0 80.000000 80.000000"
 preserveAspectRatio="xMidYMid meet">

<g transform="translate(0.000000,80.000000) scale(0.100000,-0.100000)"
fill="#000000" stroke="none">
<path d="M20 516 l0 -136 75 0 c74 0 86 -5 64 -27 -18 -18 -6 -66 21 -80 13
-6 28 -21 32 -33 4 -11 18 -24 31 -29 14 -5 27 -19 30 -30 3 -11 16 -25 30
-30 13 -5 27 -17 30 -25 9 -23 125 -23 134 0 3 8 16 20 30 25 13 5 28 20 33
34 5 14 17 25 28 25 23 0 42 19 42 41 0 9 11 24 25 33 15 10 25 26 25 40 0 36
30 56 83 56 l47 0 0 135 0 136 -147 -6 c-93 -4 -164 -12 -191 -22 -30 -10 -46
-12 -55 -4 -17 14 -65 19 -229 26 l-138 6 0 -135z m255 108 c55 -4 106 -11
113 -17 9 -7 -1 -24 -43 -68 -36 -38 -55 -65 -54 -81 1 -19 2 -17 10 9 6 19
35 55 74 91 l65 59 88 6 c49 4 121 10 160 13 l72 7 0 -122 0 -121 -29 0 c-15
0 -40 -9 -54 -20 -14 -11 -30 -20 -35 -20 -6 0 -38 30 -71 68 -53 57 -59 67
-41 70 11 2 20 8 20 14 0 6 -10 8 -22 4 -13 -3 -28 -6 -33 -6 -6 0 -32 -18
-59 -40 -26 -22 -45 -40 -41 -40 4 0 27 16 51 36 l44 37 75 -79 c57 -60 74
-85 72 -104 -1 -19 -8 -25 -27 -25 -22 0 -25 -4 -25 -35 0 -33 -2 -35 -35 -35
-32 0 -35 -2 -35 -30 0 -25 -4 -30 -27 -33 -20 -2 -28 -9 -28 -23 0 -14 -7
-19 -25 -19 -21 0 -25 5 -25 30 0 19 -6 33 -16 37 -8 3 -20 17 -25 30 -5 14
-19 27 -30 30 -11 3 -25 16 -30 30 -5 13 -18 27 -29 31 -12 4 -27 19 -33 32
-8 15 -23 26 -39 28 -15 2 -32 10 -38 18 -8 9 -32 14 -71 14 l-59 0 0 121 0
122 68 -7 c37 -3 112 -9 167 -12z m-37 -296 c3 -21 9 -27 30 -30 21 -2 28 -9
30 -30 3 -21 9 -27 30 -30 20 -2 28 -9 30 -27 2 -13 12 -26 23 -28 13 -4 19
-14 19 -34 0 -25 -4 -29 -29 -29 -20 0 -30 6 -34 19 -2 11 -15 21 -28 23 -18
2 -25 10 -27 30 -3 21 -9 27 -30 30 -21 2 -28 9 -30 30 -3 21 -9 27 -30 30
-19 2 -28 10 -30 26 -6 40 5 54 40 50 27 -2 34 -8 36 -30z"/>
<path d="M319 427 c5 -5 21 -7 37 -5 27 3 26 4 -8 9 -22 3 -34 1 -29 -4z"/>
</g>
</svg>
